# xmcd CD database file
#
# Track frame offsets:
#	150
#	12825
#	28410
#	41565
#	63705
#	83655
#	100080
#	115380
#	146925
#	163935
#	182310
#	196395
#
# Disc length: 2923 seconds
#
# Revision: 0
# Processed by: cddbd v1.5.2PL0 Copyright (c) Steve Scherf et al.
# Submitted via: CDex 1.70beta2
#
DISCID=a60b690c
DTITLE=Pat MacManus - In My Own Time
DYEAR=2007
DGENRE=Country
TTITLE0=Got The Right
TTITLE1=Low Down Dirty Blues
TTITLE2=Juggernaut
TTITLE3=Same Old Story
TTITLE4=Return To The G. Man
TTITLE5=Back In The Saddle
TTITLE6=Ordinary Man
TTITLE7=Fool
TTITLE8=Just Got Back Today
TTITLE9=Say Goodbye
TTITLE10=E-Mail Blues
TTITLE11=Just For Shannon
EXTD=YEAR: 2007
EXTT0=
EXTT1=
EXTT2=
EXTT3=
EXTT4=
EXTT5=
EXTT6=
EXTT7=
EXTT8=
EXTT9=
EXTT10=
EXTT11=
PLAYORDER=
